<?xml version="1.0" encoding="utf-8"?>
<!-- Generator: Adobe Illustrator 25.2.1, SVG Export Plug-In . SVG Version: 6.00 Build 0)  -->
<svg version="1.1" id="layer" xmlns="http://www.w3.org/2000/svg" xmlns:xlink="http://www.w3.org/1999/xlink" x="0px" y="0px"
	 viewBox="0 0 652 159" style="enable-background:new 0 0 652 159;" xml:space="preserve">
<g id="ATL-white">
	<g id="ATL2019_1-1" transform="translate(103.000000, 89.000000)">
		<path id="Shape" d="M146.8,3.1h-37.5l-9.7,21.7h-8l32.3-71.3h8.6l32.3,71.3h-8.6L146.8,3.1z M128.1-39.1L112.2-3.7h31.5
			L128.1-39.1z"/>
		<path id="Path" d="M173.9-27.1h7.4v11.9h0.2c2.7-6.2,7.6-13.5,19.9-13.5c1.5,0,2.9,0.1,4.4,0.4v7.6c-2.2-0.4-4.5-0.6-6.8-0.6
			c-8,0-17.7,4.9-17.7,19.7v26.4h-7.4L173.9-27.1L173.9-27.1z"/>
		<path id="Path_1_" d="M219.9-43.5h7.4v16.4H242v5.6h-14.7v34.3c0,4.5,1.4,6.6,7.4,6.6c3.6,0,5.9-0.3,7.3-0.6V25
			c-2.7,0.4-5.4,0.6-8.1,0.6c-11.5,0-14-4.5-14-12.9v-34.2h-11.3v-5.6h11.3L219.9-43.5z"/>
		<polygon id="Path_2_" points="253.8,-47.1 261.2,-47.1 261.2,24.8 253.8,24.8 		"/>
		<path id="Shape_1_" d="M275.9-11.2c1.1-10.9,7-17.6,24.8-17.6c17.4,0,23.8,5.4,23.8,15.4v27.1c0,4.3,1.2,5.8,4.1,5.8
			c1.3,0,2.6-0.1,3.9-0.2v5c-1.5,0.3-3.8,0.8-6.2,0.8c-7.5,0-7.9-5.1-8-9.2h-0.2c-2.3,3.4-7.3,10.4-24.3,10.4
			c-8.9,0-20.2-3.9-20.2-15.6c0-14.1,14.5-15.7,25.9-16.3c16.2-0.9,18.2-1.8,18.2-6.9c0-7.5-5-10.2-17.2-10.2
			c-11.7,0-17.3,3.1-17.8,11.4L275.9-11.2z M317.7-3.2c-3.3,2.1-8.3,2.5-23.1,3.9C286,1.5,281,4.1,281,10.3c0,8.1,7,10.5,15,10.5
			c10,0,21.7-5.4,21.7-16.1V-3.2z"/>
		<path id="Path_3_" d="M385.4-8.7c0-10.3-6.3-13.9-15.7-13.9c-14.5,0-21.1,7.4-21.1,19.2v28.1h-7.4v-51.9h7.4V-17h0.2
			c2.2-5.5,10-11.8,21.5-11.8c17.3,0,22.5,9,22.5,21.4v32.1h-7.4V-8.7z"/>
		<path id="Path_4_" d="M413.2-43.5h7.4v16.4h14.7v5.6h-14.7v34.3c0,4.5,1.4,6.6,7.4,6.6c3.6,0,5.9-0.3,7.3-0.6V25
			c-2.7,0.4-5.4,0.6-8.1,0.6c-11.5,0-14-4.5-14-12.9v-34.2h-11.3v-5.6h11.3L413.2-43.5L413.2-43.5z"/>
		<path id="Shape_2_" d="M447.1-47.1h7.4v11h-7.4V-47.1z M447.1-27.1h7.4v51.9h-7.4V-27.1z"/>
		<path id="Path_5_" d="M508.3-11.8c-1.9-8.4-7.1-10.8-17.9-10.8c-7.8,0-15,1.7-15,8.9c0,5.4,3.5,6.5,19.3,8.6
			c15.9,2.1,22.5,4.9,22.5,15c0,10.3-8.4,16.5-24.7,16.5c-16.5,0-26.3-5.4-26.3-17.9h6.8c1.3,8.7,6.2,11.7,19.5,11.7
			c10.3,0,17.3-2.1,17.3-9.9c0-5.2-3.7-7.5-19.9-9.1C473.7-0.4,468-4.2,468-13.4c0-9,7.3-15.4,22.4-15.4c16.9,0,23.8,6.1,24.7,17
			L508.3-11.8z"/>
		<path id="Shape_3_" d="M-18.3-77.1c-35.7,0-64.6,28.9-64.6,64.6S-54,52.1-18.3,52.1s64.6-28.9,64.6-64.6
			C46.3-48.2,17.4-77.1-18.3-77.1z M-4.9-17h-26.8l13.4-22.1L-4.9-17z M-44.9-41.1h22.6L-36.9-17H-61L-44.9-41.1z M-46.1,1.7
			l-13.8-14.2h22.7l13.4,35.9L-46.1,1.7z M-18.3,25.6l-14.2-38.1h28.3L-18.3,25.6z M9.5,1.7l-22.2,21.8L0.7-12.4h22.7L9.5,1.7z
			 M0.4-17l-14.7-24.1H8.3L24.4-17H0.4z"/>
	</g>
</g>
</svg>
