<svg id="Layer_1" data-name="Layer 1" xmlns="http://www.w3.org/2000/svg" viewBox="0 0 180 58"><defs><style>.cls-1{fill:#000001;stroke:#231f20;}.cls-1,.cls-2{stroke-miterlimit:22.93;stroke-width:0.57px;fill-rule:evenodd;}.cls-2{fill:#ec1c24;stroke:#ec1652;}</style></defs><path class="cls-1" d="M.28,28.94a11.1,11.1,0,0,1,1.49-5.65,10.55,10.55,0,0,1,9.79-5.58H22.85V3.63c0-1.88.93-2.82,2.78-2.82a2.47,2.47,0,0,1,2.79,2.8V54.2A2.49,2.49,0,0,1,25.6,57H11.53a10.91,10.91,0,0,1-8-3.25,10.82,10.82,0,0,1-3.26-8V28.94Zm11.24-5.65a5.49,5.49,0,0,0-4,1.64,5.43,5.43,0,0,0-1.66,4V45.8a5.42,5.42,0,0,0,1.67,4,5.5,5.5,0,0,0,4,1.67H22.85V23.29ZM39.59,43V31.74a14,14,0,0,1,14.07-14,13.9,13.9,0,0,1,14.08,14V43A14,14,0,0,1,53.66,57,14,14,0,0,1,39.59,43Zm22.57,0V31.77a8.11,8.11,0,0,0-2.48-5.95,8.56,8.56,0,0,0-12,0,8.11,8.11,0,0,0-2.48,5.95V43a8.15,8.15,0,0,0,2.47,6,8.61,8.61,0,0,0,12,0,8.1,8.1,0,0,0,2.48-6Zm67.31,14a11.12,11.12,0,0,1-11.24-11.24,11.09,11.09,0,0,1,1.5-5.66,10.48,10.48,0,0,1,9.74-5.58H140.7V28.91a5.5,5.5,0,0,0-5.62-5.62H123.85a2.47,2.47,0,0,1-2.8-2.79,2.47,2.47,0,0,1,2.8-2.79h11.23a11.1,11.1,0,0,1,11.2,11.23V54.21a2.47,2.47,0,0,1-2.79,2.8Zm11.23-16.9H129.47a5.4,5.4,0,0,0-4,1.65,5.47,5.47,0,0,0-1.64,4,5.53,5.53,0,0,0,1.66,4,5.38,5.38,0,0,0,4,1.67H140.7V40.11Zm22.5-16.82h-2.81a2.48,2.48,0,0,1-2.81-2.79,2.48,2.48,0,0,1,2.81-2.79h2.81V3.63c0-1.88.93-2.82,2.78-2.82a2.48,2.48,0,0,1,2.79,2.82V17.71h8.43A2.47,2.47,0,0,1,180,20.5a2.47,2.47,0,0,1-2.8,2.79h-8.43V54.2a2.79,2.79,0,1,1-5.57,0Z"/><path class="cls-2" d="M96.39,37.36l10.17,15.27a2.8,2.8,0,0,1,.46,1.58,2.47,2.47,0,0,1-2.8,2.8,2.61,2.61,0,0,1-2.34-1.23L93,42.42l-8.9,13.36A2.61,2.61,0,0,1,81.75,57a2.82,2.82,0,0,1-2.8-2.8,2.8,2.8,0,0,1,.46-1.58L89.58,37.36,79.41,22.1A2.82,2.82,0,0,1,79,20.52a2.48,2.48,0,0,1,2.8-2.81A2.62,2.62,0,0,1,84.09,19L93,32.27,101.88,19a2.62,2.62,0,0,1,2.34-1.24c1.87,0,2.8.92,2.8,2.76a2.89,2.89,0,0,1-.46,1.63Z"/></svg>